<svg width="512" height="512" viewBox="0 0 512 512" fill="none" xmlns="http://www.w3.org/2000/svg">
<g clip-path="url(#clip0_2151_53846)">
<path d="M512 0H0V512H512V0Z" fill="url(#paint0_linear_2151_53846)"/>
<g filter="url(#filter0_d_2151_53846)">
<path d="M65.9385 404.232C66.8349 404.63 68.0302 405.427 69.2255 406.523C70.7197 408.017 71.5165 409.611 72.0146 410.607C72.1142 427.74 72.1142 444.872 72.2138 462.005C76.4969 461.905 80.6805 461.806 84.9636 461.706C85.0632 447.263 85.0632 432.72 85.1628 418.277C88.0515 411.802 94.7252 407.918 101.499 408.714C107.575 409.412 112.854 413.794 114.746 419.87V462.901C115.145 464.595 117.535 474.954 127.297 480.333C133.074 483.52 138.652 483.42 141.143 483.321C139.947 483.122 134.568 482.026 130.883 477.046C127.795 472.862 127.695 468.38 127.695 466.985C127.596 451.048 127.496 435.111 127.397 419.173C126.899 416.783 125.006 410.209 118.93 405.826C109.766 399.252 98.7095 403.236 96.0201 404.332C90.1432 406.722 86.5574 410.707 84.864 412.798C84.6648 411.503 83.8679 407.918 80.6805 405.228C76.7958 402.041 71.0185 401.642 65.9385 404.232Z" fill="white"/>
<path d="M191.445 458.419C190.15 456.028 190.05 453.737 190.05 452.542C189.951 448.159 189.751 435.31 189.851 417.679C189.154 415.587 187.66 411.504 183.875 407.918C179.591 403.933 175.009 402.937 172.021 402.24C169.431 401.642 161.562 399.949 153.295 403.834C151.004 404.929 147.318 406.722 144.928 410.707C142.039 415.388 142.238 420.568 142.936 420.767C143.733 420.966 145.227 414.492 151.303 409.91C152.398 409.013 156.781 405.926 162.758 406.025C167.539 406.125 174.611 408.515 176.703 414.392C177.599 416.982 177.799 420.867 175.607 423.457C174.312 425.05 172.818 425.449 166.742 426.744C157.877 428.636 157.578 428.537 155.187 429.234C149.51 430.828 145.525 431.824 142.238 435.21C141.442 436.007 136.362 441.386 137.258 449.056C137.856 454.136 140.744 457.423 141.74 458.519C145.725 462.702 150.805 463.399 153.195 463.798C161.363 464.894 167.638 461.208 169.332 460.112C174.412 456.925 177.201 452.741 178.496 450.351C178.097 452.044 177.699 456.327 179.89 459.315C180.388 459.913 181.783 461.606 184.97 462.304C188.755 462.503 192.54 462.702 196.425 462.901C194.931 462.204 192.839 460.81 191.445 458.419ZM170.527 456.128C166.842 458.519 160.068 460.61 154.689 456.825C150.107 453.638 148.912 447.761 149.609 443.478C150.605 437.402 155.586 434.015 156.283 433.517C161.064 430.33 164.551 432.222 171.424 429.035C174.511 427.64 176.802 425.847 178.197 424.652C178.297 428.437 178.396 432.122 178.496 435.908C178.595 437.999 178.595 440.988 177.699 444.474C176.802 447.562 175.308 452.941 170.527 456.128Z" fill="white"/>
<path d="M200.509 405.228C201.107 405.328 202.8 405.527 204.294 406.921C205.29 407.818 205.788 408.914 205.987 409.412C206.286 426.943 206.585 444.573 206.784 462.104C210.669 462.104 214.653 462.104 218.538 462.104C218.538 460.212 218.438 458.319 218.438 456.327C215.251 448.358 213.657 441.585 212.86 436.704C211.765 430.13 211.466 424.552 211.167 416.783C210.968 411.205 210.968 406.523 210.968 403.236C207.482 403.236 203.995 403.236 200.509 403.336C200.509 404.033 200.509 404.63 200.509 405.228Z" fill="white"/>
<path d="M213.259 403.336C212.861 410.507 212.861 419.273 213.956 429.035C215.052 438.398 216.945 446.665 218.937 453.439C218.937 436.804 219.036 420.07 219.036 403.435C217.044 403.336 215.152 403.336 213.259 403.336Z" fill="white"/>
<path d="M211.964 374.35C208.677 378.533 205.29 382.617 202.003 386.801C205.39 390.586 208.777 394.371 212.263 398.156C215.55 394.47 218.937 390.685 222.224 387C218.737 382.816 215.351 378.633 211.964 374.35ZM211.964 393.375C209.773 391.084 207.581 388.793 205.489 386.502C206.386 385.605 207.183 384.609 208.079 383.713C210.171 386.103 212.362 388.394 214.454 390.785C213.657 391.582 212.761 392.478 211.964 393.375ZM209.175 382.418C210.171 381.223 211.068 379.928 212.064 378.732C214.255 381.223 216.446 383.713 218.538 386.303L215.45 389.49C213.458 387.099 211.267 384.808 209.175 382.418Z" fill="white"/>
<path d="M228.399 376.74C228.698 376.74 230.89 376.541 232.483 378.234C234.077 379.928 233.977 382.019 233.977 382.318C233.977 409.013 233.977 435.708 234.077 462.403C238.36 462.403 242.643 462.403 246.927 462.503C246.827 433.417 246.827 404.332 246.727 375.246C240.651 375.246 234.476 375.246 228.399 375.147C228.399 375.645 228.399 376.242 228.399 376.74Z" fill="white"/>
<path d="M255.094 375.744C255.991 376.043 257.584 376.84 258.979 378.234C259.676 379.031 260.174 379.729 260.573 380.326C260.672 399.451 260.772 418.576 260.971 437.7C261.17 436.206 261.569 434.214 262.166 431.824C262.963 428.636 264.258 423.456 267.246 417.48C268.541 414.89 270.533 411.603 273.522 407.918C273.522 397.16 273.522 386.402 273.522 375.545C267.346 375.645 261.27 375.645 255.094 375.744Z" fill="white"/>
<path d="M280.295 405.627C273.422 409.611 270.633 415.986 266.848 424.652C263.063 433.318 261.768 441.087 261.17 446.068C261.17 451.646 261.27 457.124 261.27 462.702C265.354 462.702 269.338 462.602 273.422 462.602C273.821 448.06 274.219 433.417 274.618 418.875C276.51 412.5 282.586 408.216 289.26 408.615C295.535 409.013 301.014 413.595 302.408 419.871C302.607 435.409 302.906 450.948 303.105 466.487C303.603 468.38 305.894 475.85 313.465 480.731C319.939 485.014 326.513 484.815 328.705 484.715C327.011 484.317 323.027 483.122 319.541 479.436C317.15 476.846 316.054 474.257 315.656 472.663C315.457 454.435 315.258 436.206 315.058 418.078C314.262 415.787 311.871 409.711 305.695 405.726C297.328 400.049 286.869 401.842 280.295 405.627Z" fill="white"/>
<path d="M323.127 405.029C323.824 405.029 324.92 405.228 326.015 405.826C330.398 408.615 328.008 416.882 328.306 433.019C328.506 442.382 329.402 447.263 331.593 451.944C333.984 456.925 336.673 459.116 337.371 459.614C342.65 463.698 348.726 463.598 351.117 463.499C353.208 463.499 361.376 463.001 367.552 456.626C370.939 453.14 372.234 449.454 373.628 445.37C375.521 439.892 375.819 435.31 376.118 427.142C376.317 420.867 376.517 412.898 376.317 403.734C374.425 403.734 372.532 403.734 370.739 403.734C371.935 412.798 372.134 420.269 372.134 425.747C372.134 432.82 371.636 435.609 371.337 437.003C370.042 444.075 368.548 451.546 362.472 455.032C356.695 458.319 348.128 457.423 344.244 452.94C342.451 450.849 342.052 448.558 341.853 447.562C339.662 434.114 340.757 409.412 341.056 403.435C335.08 403.435 329.203 403.435 323.226 403.435C323.127 403.933 323.127 404.431 323.127 405.029Z" fill="white"/>
<path d="M378.509 403.635C378.708 408.814 378.907 417.48 378.608 426.544C378.409 430.529 378.21 433.816 377.612 437.7C377.015 441.386 376.716 443.179 376.118 445.47C375.222 448.558 373.628 452.144 373.329 456.327C373.329 457.024 373.23 458.12 373.728 459.315C374.425 461.009 375.819 462.005 376.517 462.403C380.302 462.304 384.186 462.204 387.972 462.104C387.075 461.507 385.979 460.61 384.884 459.116C384.884 459.116 383.489 457.224 382.792 454.733C381.796 451.347 381.796 431.226 382.991 403.535C381.497 403.635 380.003 403.635 378.509 403.635Z" fill="white"/>
<path d="M383.19 355.424C384.685 355.723 389.067 356.918 392.653 361.002C396.04 364.787 396.737 368.971 396.936 370.565C397.136 393.873 397.335 417.281 397.534 440.589C398.829 444.275 400.223 447.86 401.518 451.546C400.423 444.075 400.522 437.8 400.821 433.318C401.219 428.038 401.718 423.058 404.307 417.082C405.901 413.396 407.893 410.507 409.387 408.615C409.188 396.762 408.989 384.908 408.889 373.055C408.292 370.764 406.2 364.488 399.925 359.707C396.139 356.819 392.255 355.623 389.964 355.225C387.772 355.325 385.481 355.325 383.19 355.424Z" fill="white"/>
<path d="M454.31 418.675C453.514 416.783 450.924 410.508 444.25 406.523C438.871 403.336 433.791 403.236 430.803 403.137C427.516 403.037 421.838 402.937 416.061 406.523C410.483 410.009 407.993 415.089 406.499 418.177C404.606 422.062 404.008 425.25 403.311 429.035C401.817 437.003 402.514 443.079 402.813 445.271C403.411 449.653 403.61 451.845 405.004 454.235C408.292 459.913 414.467 461.806 417.953 462.901C420.842 463.798 429.01 466.188 438.373 462.304C439.967 461.606 448.035 458.12 452.617 449.355C455.406 444.075 455.605 439.394 455.904 433.417C456.103 428.039 456.402 423.755 454.31 418.675ZM443.254 431.824C443.154 440.191 443.154 444.474 441.561 448.657C440.266 452.144 438.672 456.327 434.19 459.017C428.612 462.403 422.535 460.81 421.241 460.511C413.471 458.319 409.985 451.048 408.79 448.657C405.104 441.087 406.399 434.015 408.092 424.552C409.088 418.974 410.383 416.086 412.375 413.695C413.471 412.4 415.961 409.312 420.344 408.017C424.926 406.623 428.711 407.918 430.205 408.416C433.393 409.511 435.385 411.304 436.68 412.4C437.776 413.396 439.967 415.587 441.461 418.675C442.457 420.668 443.354 423.257 443.254 431.824Z" fill="white"/>
</g>
<g filter="url(#filter1_d_2151_53846)">
<path d="M260.772 190.772C260.772 190.772 240.95 53.3128 457 34.9849C457 34.9849 451.322 45.0453 437.277 81.4023C414.965 138.876 392.055 164.675 301.213 187.385C284.379 191.569 257.883 200.334 266.35 247.349C266.35 247.349 233.081 150.132 361.675 82.2988C361.575 82.1992 267.246 112.181 260.772 190.772Z" fill="white"/>
</g>
<g filter="url(#filter2_d_2151_53846)">
<path d="M50.3 107.001C50.3 107.001 56.2765 127.521 75.9989 155.809C101.399 192.266 142.836 195.254 173.316 194.059C224.714 192.067 232.882 217.268 232.882 217.268C232.882 217.268 227.503 170.85 139.748 137.681C139.748 137.681 245.532 156.407 242.344 235.994C241.448 255.218 282.287 77.7167 50.3 107.001Z" fill="white"/>
</g>
<g filter="url(#filter3_d_2151_53846)">
<path d="M235.472 248.146C235.472 248.146 238.759 275.837 210.37 302.532C210.37 302.532 245.034 283.906 243.241 245.855C243.241 245.855 260.473 336.1 171.822 339.587C171.822 339.587 174.113 340.483 190.25 292.97C202.501 256.713 235.472 248.146 235.472 248.146Z" fill="white"/>
</g>
<g filter="url(#filter4_d_2151_53846)">
<path d="M280.793 237.986C280.793 237.986 287.069 278.825 325.816 295.061C325.816 295.061 283.881 289.284 271.231 250.337C271.231 250.337 281.291 347.654 378.409 320.561C378.409 320.561 363.269 306.716 339.562 271.355C316.553 236.89 280.793 237.986 280.793 237.986Z" fill="white"/>
</g>
<g filter="url(#filter5_d_2151_53846)">
<path d="M260.971 126.724C261.37 135.987 254.297 143.856 244.934 144.354C235.671 144.753 227.802 137.681 227.304 128.317C226.905 119.054 233.977 111.185 243.341 110.687C252.704 110.288 260.573 117.46 260.971 126.724Z" fill="white"/>
</g>
</g>
<defs>
<filter id="filter0_d_2151_53846" x="61.9385" y="355.225" width="398.106" height="137.527" filterUnits="userSpaceOnUse" color-interpolation-filters="sRGB">
<feFlood flood-opacity="0" result="BackgroundImageFix"/>
<feColorMatrix in="SourceAlpha" type="matrix" values="0 0 0 0 0 0 0 0 0 0 0 0 0 0 0 0 0 0 127 0" result="hardAlpha"/>
<feOffset dy="4"/>
<feGaussianBlur stdDeviation="2"/>
<feComposite in2="hardAlpha" operator="out"/>
<feColorMatrix type="matrix" values="0 0 0 0 0 0 0 0 0 0 0 0 0 0 0 0 0 0 0.25 0"/>
<feBlend mode="normal" in2="BackgroundImageFix" result="effect1_dropShadow_2151_53846"/>
<feBlend mode="normal" in="SourceGraphic" in2="effect1_dropShadow_2151_53846" result="shape"/>
</filter>
<filter id="filter1_d_2151_53846" x="256.295" y="34.9849" width="204.705" height="220.365" filterUnits="userSpaceOnUse" color-interpolation-filters="sRGB">
<feFlood flood-opacity="0" result="BackgroundImageFix"/>
<feColorMatrix in="SourceAlpha" type="matrix" values="0 0 0 0 0 0 0 0 0 0 0 0 0 0 0 0 0 0 127 0" result="hardAlpha"/>
<feOffset dy="4"/>
<feGaussianBlur stdDeviation="2"/>
<feComposite in2="hardAlpha" operator="out"/>
<feColorMatrix type="matrix" values="0 0 0 0 0 0 0 0 0 0 0 0 0 0 0 0 0 0 0.25 0"/>
<feBlend mode="normal" in2="BackgroundImageFix" result="effect1_dropShadow_2151_53846"/>
<feBlend mode="normal" in="SourceGraphic" in2="effect1_dropShadow_2151_53846" result="shape"/>
</filter>
<filter id="filter2_d_2151_53846" x="46.3" y="103.73" width="202.284" height="141.723" filterUnits="userSpaceOnUse" color-interpolation-filters="sRGB">
<feFlood flood-opacity="0" result="BackgroundImageFix"/>
<feColorMatrix in="SourceAlpha" type="matrix" values="0 0 0 0 0 0 0 0 0 0 0 0 0 0 0 0 0 0 127 0" result="hardAlpha"/>
<feOffset dy="4"/>
<feGaussianBlur stdDeviation="2"/>
<feComposite in2="hardAlpha" operator="out"/>
<feColorMatrix type="matrix" values="0 0 0 0 0 0 0 0 0 0 0 0 0 0 0 0 0 0 0.25 0"/>
<feBlend mode="normal" in2="BackgroundImageFix" result="effect1_dropShadow_2151_53846"/>
<feBlend mode="normal" in="SourceGraphic" in2="effect1_dropShadow_2151_53846" result="shape"/>
</filter>
<filter id="filter3_d_2151_53846" x="167.822" y="245.855" width="80.7693" height="101.732" filterUnits="userSpaceOnUse" color-interpolation-filters="sRGB">
<feFlood flood-opacity="0" result="BackgroundImageFix"/>
<feColorMatrix in="SourceAlpha" type="matrix" values="0 0 0 0 0 0 0 0 0 0 0 0 0 0 0 0 0 0 127 0" result="hardAlpha"/>
<feOffset dy="4"/>
<feGaussianBlur stdDeviation="2"/>
<feComposite in2="hardAlpha" operator="out"/>
<feColorMatrix type="matrix" values="0 0 0 0 0 0 0 0 0 0 0 0 0 0 0 0 0 0 0.25 0"/>
<feBlend mode="normal" in2="BackgroundImageFix" result="effect1_dropShadow_2151_53846"/>
<feBlend mode="normal" in="SourceGraphic" in2="effect1_dropShadow_2151_53846" result="shape"/>
</filter>
<filter id="filter4_d_2151_53846" x="267.231" y="237.982" width="115.178" height="95.3427" filterUnits="userSpaceOnUse" color-interpolation-filters="sRGB">
<feFlood flood-opacity="0" result="BackgroundImageFix"/>
<feColorMatrix in="SourceAlpha" type="matrix" values="0 0 0 0 0 0 0 0 0 0 0 0 0 0 0 0 0 0 127 0" result="hardAlpha"/>
<feOffset dy="4"/>
<feGaussianBlur stdDeviation="2"/>
<feComposite in2="hardAlpha" operator="out"/>
<feColorMatrix type="matrix" values="0 0 0 0 0 0 0 0 0 0 0 0 0 0 0 0 0 0 0.25 0"/>
<feBlend mode="normal" in2="BackgroundImageFix" result="effect1_dropShadow_2151_53846"/>
<feBlend mode="normal" in="SourceGraphic" in2="effect1_dropShadow_2151_53846" result="shape"/>
</filter>
<filter id="filter5_d_2151_53846" x="223.288" y="110.671" width="41.6997" height="41.6994" filterUnits="userSpaceOnUse" color-interpolation-filters="sRGB">
<feFlood flood-opacity="0" result="BackgroundImageFix"/>
<feColorMatrix in="SourceAlpha" type="matrix" values="0 0 0 0 0 0 0 0 0 0 0 0 0 0 0 0 0 0 127 0" result="hardAlpha"/>
<feOffset dy="4"/>
<feGaussianBlur stdDeviation="2"/>
<feComposite in2="hardAlpha" operator="out"/>
<feColorMatrix type="matrix" values="0 0 0 0 0 0 0 0 0 0 0 0 0 0 0 0 0 0 0.25 0"/>
<feBlend mode="normal" in2="BackgroundImageFix" result="effect1_dropShadow_2151_53846"/>
<feBlend mode="normal" in="SourceGraphic" in2="effect1_dropShadow_2151_53846" result="shape"/>
</filter>
<linearGradient id="paint0_linear_2151_53846" x1="0" y1="0" x2="512" y2="512" gradientUnits="userSpaceOnUse">
<stop stop-color="#D9B3A4"/>
<stop offset="0.326923" stop-color="#B9826A"/>
<stop offset="0.499023" stop-color="#B9826A"/>
<stop offset="0.653846" stop-color="#B9826A"/>
<stop offset="1" stop-color="#D9B1A2"/>
</linearGradient>
<clipPath id="clip0_2151_53846">
<rect width="512" height="512" fill="white"/>
</clipPath>
</defs>
</svg>
