<svg width="74" height="60" viewBox="0 0 74 60" fill="none" xmlns="http://www.w3.org/2000/svg">
<g clip-path="url(#clip0_2352_15179)">
<path d="M38.2935 30.6865C38.2935 30.6865 34.6824 3.61491 74.0001 0C74.0001 0 72.974 1.97319 70.4017 9.1422C66.3428 20.4557 62.1734 25.5338 45.6353 30.002C42.5753 30.8297 37.7497 32.5557 39.2905 41.8039C39.2905 41.8039 33.2322 22.6603 56.639 9.30696C56.639 9.30696 39.4863 15.2207 38.2917 30.6865H38.2935Z" fill="url(#paint0_radial_2352_15179)"/>
<path d="M0.000103808 14.187C0.000103808 14.187 1.08234 18.2216 4.67167 23.8039C9.29248 30.9886 16.8428 31.5652 22.3754 31.3338C31.7367 30.9454 33.2159 35.9137 33.2159 35.9137C33.2159 35.9137 32.2352 26.7695 16.2627 20.2399C16.2627 20.2399 35.52 23.9255 34.9272 39.609C34.784 43.3769 42.2055 8.42236 -0.00170898 14.187H0.000103808Z" fill="url(#paint1_radial_2352_15179)"/>
<path d="M33.6853 41.9902C33.6853 41.9902 34.2817 47.439 29.1152 52.6996C29.1152 52.6996 35.4183 49.0239 35.1011 41.541C35.1011 41.541 38.2354 59.3076 22.0979 60.0039C22.0979 60.0039 22.513 60.1765 25.4461 50.8303C27.6922 43.6731 33.6835 41.9921 33.6835 41.9921L33.6853 41.9902Z" fill="url(#paint2_radial_2352_15179)"/>
<path d="M41.9443 39.9817C41.9443 39.9817 43.09 48.0216 50.1345 51.2187C50.1345 51.2187 42.4954 50.0811 40.2058 42.404C40.2058 42.404 42.0385 61.5632 59.7096 56.2262C59.7096 56.2262 56.947 53.5077 52.6343 46.5348C48.4504 39.7698 41.9443 39.9797 41.9443 39.9797V39.9817Z" fill="url(#paint3_radial_2352_15179)"/>
<path d="M38.3352 18.0824C38.415 19.9085 37.1116 21.46 35.4239 21.5463C33.7362 21.6326 32.3022 20.2223 32.2225 18.3962C32.1427 16.5701 33.4461 15.0187 35.1338 14.9323C36.8215 14.846 38.2554 16.2563 38.3352 18.0824Z" fill="url(#paint4_radial_2352_15179)"/>
</g>
<defs>
<radialGradient id="paint0_radial_2352_15179" cx="0" cy="0" r="1" gradientUnits="userSpaceOnUse" gradientTransform="translate(63.0218 26.9186) scale(42.5481 46.0366)">
<stop stop-color="#8E6258"/>
<stop offset="0.98" stop-color="#DCB5A5"/>
</radialGradient>
<radialGradient id="paint1_radial_2352_15179" cx="0" cy="0" r="1" gradientUnits="userSpaceOnUse" gradientTransform="translate(43.1645 27.9189) scale(44.4859 48.1334)">
<stop stop-color="#8E6258"/>
<stop offset="0.98" stop-color="#DCB5A5"/>
</radialGradient>
<radialGradient id="paint2_radial_2352_15179" cx="0" cy="0" r="1" gradientUnits="userSpaceOnUse" gradientTransform="translate(34.3904 56.3988) scale(21.9529 23.7529)">
<stop stop-color="#8E6258"/>
<stop offset="0.98" stop-color="#DCB5A5"/>
</radialGradient>
<radialGradient id="paint3_radial_2352_15179" cx="0" cy="0" r="1" gradientUnits="userSpaceOnUse" gradientTransform="translate(58.4026 47.9039) scale(32.1608 34.7976)">
<stop stop-color="#8E6258"/>
<stop offset="0.98" stop-color="#DCB5A5"/>
</radialGradient>
<radialGradient id="paint4_radial_2352_15179" cx="0" cy="0" r="1" gradientTransform="matrix(10.9605 -0.563411 0.520717 11.8591 33.1077 15.3071)" gradientUnits="userSpaceOnUse">
<stop stop-color="#F8DF68"/>
<stop offset="0.53" stop-color="#F9BFB5"/>
<stop offset="0.98" stop-color="#E9A6C9"/>
</radialGradient>
<clipPath id="clip0_2352_15179">
<rect width="74" height="60" fill="white"/>
</clipPath>
</defs>
</svg>
