<svg width="89" height="30" viewBox="0 0 89 30" fill="none" xmlns="http://www.w3.org/2000/svg">
<g clip-path="url(#clip0_1824_42687)">
<path d="M78.9409 15.1371C78.9409 15.1371 79.2025 16.8328 81.3281 17.948C81.3281 17.948 78.9671 17.4132 78.4438 15.1306C78.4438 15.1306 78.9082 20.7589 84.232 19.5132C84.232 19.5132 84.1077 19.6045 82.3745 17.0545C81.0469 15.1045 78.9474 15.1371 78.9474 15.1371H78.9409Z" fill="url(#paint0_radial_1824_42687)"/>
<path d="M78.1363 13.9956C78.1363 13.9956 78.1755 9.68477 81.9427 7.42825C81.9427 7.42825 77.6785 8.65433 76.9656 12.8674C76.9656 12.8674 76.5535 2.66738 87.0114 4.01738C87.0114 4.01738 85.6445 5.66738 83.7217 9.67825C81.8577 13.5717 78.1363 13.9956 78.1363 13.9956Z" fill="url(#paint1_radial_1824_42687)"/>
<path d="M80.033 4.69571C79.3725 5.21745 78.2606 6.24137 77.4627 7.8718C76.3966 10.0435 76.4882 12.0457 76.5798 12.9131C76.3312 12.5609 74.0814 9.26745 75.4091 5.22398C76.6844 1.35006 80.2096 -0.0129819 80.6544 -0.176025C80.4516 1.44789 80.2423 3.0718 80.0396 4.70224L80.033 4.69571Z" fill="url(#paint2_radial_1824_42687)"/>
<path d="M74.8663 14.1588C75.2348 14.1588 75.5334 13.861 75.5334 13.4936C75.5334 13.1262 75.2348 12.8284 74.8663 12.8284C74.4979 12.8284 74.1992 13.1262 74.1992 13.4936C74.1992 13.861 74.4979 14.1588 74.8663 14.1588Z" fill="#FFDD15"/>
<path d="M75.9977 14.3023C76.7564 14.1197 77.6524 15.3588 78.0383 16.0828C78.4699 16.9045 78.5419 17.648 78.5942 18.1762C78.6988 19.2197 78.5419 20.0806 78.398 20.6284C78.4896 20.0284 78.5157 19.2458 78.313 18.3915C78.1952 17.9154 78.0448 17.5501 77.9533 17.348C77.4431 16.2523 76.7171 15.6328 76.534 15.4828C76.2986 15.2871 75.9323 15.0262 75.4287 14.798C75.5595 14.5762 75.7426 14.3675 76.0043 14.3023H75.9977Z" fill="url(#paint3_radial_1824_42687)"/>
<path d="M5.54639 15.2479C5.70989 15.3261 5.93226 15.4631 6.14809 15.6783C6.42932 15.9587 6.57975 16.2522 6.65823 16.4348C6.67131 19.6044 6.68439 22.7805 6.69747 25.95C7.48231 25.9305 8.27368 25.9109 9.05851 25.8913C9.07159 23.2044 9.08467 20.5174 9.09775 17.837C9.63406 16.637 10.8767 15.9196 12.139 16.0696C13.277 16.2 14.2449 17.0153 14.5981 18.1305V26.1066C14.6635 26.4196 15.1083 28.337 16.9395 29.3348C18.0121 29.9218 19.0455 29.9153 19.5164 29.8827C19.294 29.8435 18.2934 29.6479 17.6066 28.7153C17.0246 27.9327 17.0115 27.1044 17.0246 26.85C17.0049 23.9022 16.9853 20.9479 16.9657 18C16.8676 17.5631 16.5275 16.337 15.383 15.5283C13.6759 14.3153 11.6223 15.0587 11.1318 15.2544C10.0396 15.6979 9.37245 16.4348 9.06505 16.8326C9.02581 16.5979 8.88193 15.9196 8.28676 15.4305C7.56733 14.8435 6.49473 14.7718 5.55293 15.2544L5.54639 15.2479Z" fill="url(#paint4_linear_1824_42687)"/>
<path d="M28.8757 25.2782C28.6271 24.8347 28.614 24.4043 28.6075 24.1956C28.5944 23.3869 28.5617 20.9934 28.5683 17.7391C28.444 17.3478 28.1562 16.5912 27.4499 15.9391C26.6585 15.2021 25.8017 15.0064 25.2523 14.8825C24.7814 14.7782 23.3033 14.4651 21.7795 15.1825C21.3478 15.3847 20.6807 15.7173 20.2163 16.4543C19.6866 17.3151 19.7127 18.2804 19.837 18.3195C19.9809 18.3586 20.2556 17.1586 21.387 16.3108C21.5963 16.1543 22.4008 15.5608 23.5061 15.5999C24.4021 15.626 25.7102 16.063 26.096 17.1456C26.2661 17.6282 26.2988 18.3521 25.8998 18.8347C25.6644 19.1217 25.3701 19.1999 24.2451 19.4412C22.597 19.7999 22.5447 19.7738 22.0999 19.8978C21.0404 20.1847 20.3144 20.3804 19.6931 21.013C19.5427 21.163 18.6009 22.1608 18.7709 23.5825C18.8821 24.5282 19.4184 25.1347 19.6016 25.3304C20.3537 26.113 21.2824 26.2434 21.7337 26.3021C23.2576 26.5108 24.4217 25.8195 24.7357 25.6238C25.684 25.0369 26.1941 24.2543 26.4296 23.8238C26.3511 24.1304 26.2726 24.9325 26.6847 25.4738C26.7697 25.5847 27.0378 25.9043 27.633 26.0347C28.3394 26.0673 29.0457 26.1065 29.7521 26.1391C29.497 26.0021 29.1176 25.7412 28.8626 25.2847L28.8757 25.2782ZM24.9842 24.8608C24.304 25.3108 23.0417 25.6891 22.0411 24.9912C21.1843 24.3912 20.9619 23.3086 21.0927 22.513C21.2824 21.3782 22.198 20.7586 22.3288 20.6738C23.2249 20.0869 23.8593 20.4391 25.1542 19.8456C25.7232 19.5847 26.1484 19.2651 26.4165 19.0304C26.4361 19.7282 26.4492 20.4195 26.4688 21.1173C26.495 21.4956 26.4885 22.063 26.3119 22.7151C26.1549 23.2891 25.8868 24.2738 24.9907 24.8673L24.9842 24.8608Z" fill="url(#paint5_linear_1824_42687)"/>
<path d="M30.5565 15.4304C30.6677 15.4434 30.9817 15.4891 31.2563 15.7434C31.4395 15.913 31.531 16.1021 31.5703 16.213C31.6226 19.4673 31.6749 22.7217 31.7272 25.9825H33.9117C33.9052 25.6304 33.8921 25.2717 33.8855 24.9195C33.2969 23.4456 33.0026 22.1804 32.8456 21.2738C32.6363 20.0478 32.5906 19.0238 32.5317 17.5891C32.4925 16.5586 32.4859 15.6978 32.4925 15.0847C31.845 15.0847 31.1909 15.0912 30.5435 15.0978C30.5435 15.2086 30.55 15.3195 30.5565 15.4369V15.4304Z" fill="url(#paint6_linear_1824_42687)"/>
<path d="M32.9108 15.0784C32.8258 16.4153 32.8258 18.0262 33.0416 19.8392C33.2444 21.5805 33.5976 23.1001 33.9638 24.3523C33.9704 21.261 33.9834 18.1697 33.99 15.0784H32.9108Z" fill="url(#paint7_linear_1824_42687)"/>
<path d="M32.682 9.71094C32.0672 10.4805 31.4458 11.2501 30.8311 12.0131C31.4655 12.7109 32.0999 13.4153 32.7277 14.1131C33.3425 13.4218 33.9573 12.7305 34.5721 12.0392C33.9442 11.2631 33.3098 10.487 32.682 9.71094ZM32.682 13.2262C32.2765 12.8022 31.8775 12.3783 31.472 11.9544L31.9494 11.4262C32.3419 11.8631 32.7408 12.3001 33.1332 12.7305L32.6754 13.2262H32.682ZM32.1653 11.2044C32.3419 10.9762 32.525 10.7479 32.7016 10.5262C33.1071 10.9892 33.506 11.4588 33.9115 11.9218L33.336 12.5153C32.9436 12.0783 32.5511 11.6414 32.1653 11.2044Z" fill="url(#paint8_linear_1824_42687)"/>
<path d="M35.7363 10.1479C35.7887 10.1479 36.1941 10.1153 36.5015 10.4349C36.8024 10.7414 36.7762 11.1327 36.7762 11.1849C36.7762 16.1283 36.7828 21.0783 36.7893 26.0218C37.5872 26.0218 38.3851 26.0283 39.1831 26.0349C39.17 20.6414 39.1569 15.2544 39.1438 9.86094L35.7363 9.8479V10.1479Z" fill="url(#paint9_linear_1824_42687)"/>
<path d="M40.7002 9.95867C40.8768 10.0239 41.158 10.1543 41.4196 10.4217C41.557 10.5587 41.6485 10.7021 41.7139 10.8195C41.7336 14.3674 41.7597 17.9087 41.7793 21.4565C41.8251 21.1826 41.8905 20.8043 42.0017 20.3608C42.1456 19.7608 42.3876 18.8087 42.95 17.7065C43.1986 17.2304 43.5648 16.6108 44.1077 15.9456C44.1077 13.95 44.1077 11.9478 44.1077 9.95215C42.9697 9.95215 41.8382 9.96519 40.7002 9.96519V9.95867Z" fill="url(#paint10_linear_1824_42687)"/>
<path d="M45.3834 15.5022C44.1015 16.2457 43.5848 17.4196 42.885 19.0239C42.1787 20.6348 41.9301 22.0696 41.832 22.9957C41.832 24.0196 41.8451 25.0435 41.8517 26.0674C42.6038 26.0609 43.3559 26.0479 44.108 26.0413C44.18 23.3413 44.2585 20.6413 44.3304 17.9348C44.6901 16.7479 45.8216 15.9522 47.0446 16.0239C48.2153 16.0957 49.2225 16.9435 49.4842 18.1044C49.5299 20.987 49.5757 23.8631 49.6215 26.7457C49.7196 27.0979 50.1513 28.4739 51.5509 29.3935C52.7608 30.1826 53.9708 30.1566 54.3828 30.1305C54.0754 30.0587 53.3233 29.8435 52.6823 29.1587C52.2441 28.6892 52.0414 28.1935 51.9498 27.9L51.8386 17.7783C51.6948 17.3479 51.25 16.2196 50.1055 15.4826C48.5423 14.4783 46.6064 14.7979 45.3834 15.5022Z" fill="url(#paint11_linear_1824_42687)"/>
<path d="M53.3491 15.3849C53.4865 15.3849 53.6892 15.4175 53.8789 15.5349C54.6899 16.0436 54.2582 17.5892 54.304 20.5762C54.3302 22.311 54.5002 23.211 54.9188 24.0784C55.3635 25.0045 55.854 25.4023 55.9848 25.5066C56.9659 26.2697 58.0974 26.2371 58.5421 26.224C58.928 26.2175 60.4453 26.1262 61.5964 24.9588C62.2308 24.3132 62.4597 23.6284 62.7213 22.8653C63.068 21.8414 63.1399 21.0001 63.1922 19.4871C63.2315 18.3197 63.2576 16.8523 63.2315 15.1436C62.8848 15.1436 62.5382 15.1436 62.1916 15.1436C62.4074 16.8197 62.4532 18.2153 62.4466 19.2197C62.4401 20.524 62.3485 21.0523 62.3028 21.3066C62.0542 22.624 61.7926 24.0001 60.6611 24.6523C59.5951 25.2653 57.9927 25.0892 57.2733 24.2545C56.9397 23.8697 56.8678 23.4327 56.8351 23.2501C56.4296 20.7653 56.6258 16.1805 56.6781 15.0784H53.3622V15.3653L53.3491 15.3849Z" fill="url(#paint12_linear_1824_42687)"/>
<path d="M63.6303 15.1304C63.6696 16.0891 63.7088 17.6999 63.6434 19.376C63.6173 20.1065 63.5715 20.7195 63.4603 21.4369C63.3556 22.1152 63.3033 22.4543 63.1725 22.8717C63.0025 23.4391 62.7147 24.1108 62.6558 24.8804C62.6493 25.0043 62.6362 25.213 62.7343 25.4412C62.8651 25.7543 63.1202 25.9304 63.2575 26.0152C63.9704 25.9956 64.6768 25.9825 65.3897 25.963C65.2262 25.8521 65.0103 25.6825 64.8141 25.4152C64.8141 25.4152 64.5591 25.0695 64.4217 24.613C64.2386 23.9869 64.232 20.2499 64.4544 15.1369H63.6173L63.6303 15.1304Z" fill="url(#paint13_linear_1824_42687)"/>
<path d="M64.507 6.20222C64.7883 6.26091 65.5993 6.48265 66.2598 7.23265C66.8877 7.94352 67.025 8.71309 67.0577 9.00004C67.097 13.324 67.1362 17.6479 67.1755 21.9783C67.424 22.6566 67.6725 23.3283 67.921 24.0066C67.7118 22.6174 67.7314 21.4566 67.7968 20.6283C67.8753 19.6435 67.9537 18.7174 68.4377 17.6218C68.7451 16.9305 69.1048 16.4087 69.3795 16.0631C69.3468 13.8653 69.3141 11.6674 69.2814 9.46961C69.1637 9.0457 68.7778 7.87178 67.6202 6.99787C66.9073 6.45656 66.1944 6.24787 65.7693 6.16309C65.3442 6.17613 64.9256 6.18917 64.5005 6.20222H64.507Z" fill="url(#paint14_linear_1824_42687)"/>
<path d="M77.7115 17.9153C77.5676 17.5631 77.0837 16.4022 75.841 15.6587C74.8534 15.0653 73.9051 15.0457 73.3426 15.0392C72.7344 15.0261 71.6683 15.0066 70.6088 15.6587C69.5624 16.3044 69.1045 17.25 68.8364 17.8109C68.4832 18.5348 68.3786 19.1283 68.2543 19.8196C67.9862 21.2935 68.1039 22.4153 68.1562 22.8196C68.2608 23.6283 68.3132 24.0327 68.5682 24.4761C69.1765 25.5261 70.321 25.8848 70.9685 26.087C71.4983 26.25 73.0222 26.6935 74.7553 25.9761C75.0562 25.8522 76.5539 25.2 77.4107 23.5827C77.9274 22.6044 77.9601 21.737 78.0124 20.6348C78.0582 19.6631 78.0974 18.8674 77.7181 17.9218L77.7115 17.9153ZM75.6644 20.3674C75.6513 21.9261 75.6513 22.7022 75.3505 23.4783C75.102 24.124 74.8077 24.9066 73.9836 25.4022C72.9437 26.0348 71.8122 25.7414 71.5833 25.6761C70.1379 25.2653 69.4904 23.9283 69.268 23.4718C68.5879 22.0631 68.8168 20.7653 69.1372 18.9979C69.3204 17.9609 69.5624 17.4261 69.9221 16.9761C70.1183 16.7283 70.5826 16.1674 71.4067 15.9261C72.2569 15.6718 72.9633 15.9066 73.2314 15.9979C73.8266 16.2 74.1994 16.5327 74.4349 16.7414C74.6441 16.9305 75.0431 17.3283 75.3309 17.9087C75.514 18.2805 75.671 18.7696 75.6644 20.3609V20.3674Z" fill="url(#paint15_linear_1824_42687)"/>
</g>
<defs>
<radialGradient id="paint0_radial_1824_42687" cx="0" cy="0" r="1" gradientTransform="matrix(-7.16617 1.98038 1.98601 7.14587 79.9011 19.4771)" gradientUnits="userSpaceOnUse">
<stop stop-color="#8E6258"/>
<stop offset="0.98" stop-color="#DCB5A5"/>
</radialGradient>
<radialGradient id="paint1_radial_1824_42687" cx="0" cy="0" r="1" gradientTransform="matrix(18.2989 -2.6392 -2.6467 -18.2471 86.8784 8.47032)" gradientUnits="userSpaceOnUse">
<stop stop-color="#8E6258"/>
<stop offset="0.98" stop-color="#DCB5A5"/>
</radialGradient>
<radialGradient id="paint2_radial_1824_42687" cx="0" cy="0" r="1" gradientTransform="matrix(12.5214 -10.3219 -10.3512 -12.4859 82.4586 3.26624)" gradientUnits="userSpaceOnUse">
<stop stop-color="#8E6258"/>
<stop offset="0.98" stop-color="#DCB5A5"/>
</radialGradient>
<radialGradient id="paint3_radial_1824_42687" cx="0" cy="0" r="1" gradientTransform="matrix(-8.90419 0.544616 0.546163 8.87896 75.4733 14.7407)" gradientUnits="userSpaceOnUse">
<stop stop-color="#8E6258"/>
<stop offset="0.98" stop-color="#DCB5A5"/>
</radialGradient>
<linearGradient id="paint4_linear_1824_42687" x1="12.5903" y1="29.2044" x2="12.4342" y2="11.4587" gradientUnits="userSpaceOnUse">
<stop stop-color="#8E6258"/>
<stop offset="0.98" stop-color="#DCB5A5"/>
</linearGradient>
<linearGradient id="paint5_linear_1824_42687" x1="24.2975" y1="29.0999" x2="24.1414" y2="11.3608" gradientUnits="userSpaceOnUse">
<stop stop-color="#8E6258"/>
<stop offset="0.98" stop-color="#DCB5A5"/>
</linearGradient>
<linearGradient id="paint6_linear_1824_42687" x1="32.3028" y1="29.0282" x2="32.1467" y2="11.2891" gradientUnits="userSpaceOnUse">
<stop stop-color="#8E6258"/>
<stop offset="0.98" stop-color="#DCB5A5"/>
</linearGradient>
<linearGradient id="paint7_linear_1824_42687" x1="33.5452" y1="29.0218" x2="33.3892" y2="11.2762" gradientUnits="userSpaceOnUse">
<stop stop-color="#8E6258"/>
<stop offset="0.98" stop-color="#DCB5A5"/>
</linearGradient>
<linearGradient id="paint8_linear_1824_42687" x1="32.852" y1="29.0283" x2="32.6959" y2="11.2827" gradientUnits="userSpaceOnUse">
<stop stop-color="#8E6258"/>
<stop offset="0.98" stop-color="#DCB5A5"/>
</linearGradient>
<linearGradient id="paint9_linear_1824_42687" x1="37.6068" y1="28.9827" x2="37.4508" y2="11.2435" gradientUnits="userSpaceOnUse">
<stop stop-color="#8E6258"/>
<stop offset="0.98" stop-color="#DCB5A5"/>
</linearGradient>
<linearGradient id="paint10_linear_1824_42687" x1="42.5707" y1="28.9435" x2="42.4211" y2="11.1978" gradientUnits="userSpaceOnUse">
<stop stop-color="#8E6258"/>
<stop offset="0.98" stop-color="#DCB5A5"/>
</linearGradient>
<linearGradient id="paint11_linear_1824_42687" x1="48.1238" y1="28.8913" x2="47.9677" y2="11.1522" gradientUnits="userSpaceOnUse">
<stop stop-color="#8E6258"/>
<stop offset="0.98" stop-color="#DCB5A5"/>
</linearGradient>
<linearGradient id="paint12_linear_1824_42687" x1="58.4048" y1="28.8001" x2="58.2487" y2="11.061" gradientUnits="userSpaceOnUse">
<stop stop-color="#8E6258"/>
<stop offset="0.98" stop-color="#DCB5A5"/>
</linearGradient>
<linearGradient id="paint13_linear_1824_42687" x1="64.0489" y1="28.7543" x2="63.8928" y2="11.0086" gradientUnits="userSpaceOnUse">
<stop stop-color="#8E6258"/>
<stop offset="0.98" stop-color="#DCB5A5"/>
</linearGradient>
<linearGradient id="paint14_linear_1824_42687" x1="67.097" y1="28.7283" x2="66.9474" y2="10.9826" gradientUnits="userSpaceOnUse">
<stop stop-color="#8E6258"/>
<stop offset="0.98" stop-color="#DCB5A5"/>
</linearGradient>
<linearGradient id="paint15_linear_1824_42687" x1="73.1268" y1="28.6761" x2="72.9772" y2="10.9305" gradientUnits="userSpaceOnUse">
<stop stop-color="#8E6258"/>
<stop offset="0.98" stop-color="#DCB5A5"/>
</linearGradient>
<clipPath id="clip0_1824_42687">
<rect width="89" height="30" fill="white"/>
</clipPath>
</defs>
</svg>
