<svg width="136" height="46" viewBox="0 0 136 46" fill="none" xmlns="http://www.w3.org/2000/svg">
<g clip-path="url(#clip0_1824_42667)">
<path d="M120.629 23.2099C120.629 23.2099 121.029 25.81 124.277 27.52C124.277 27.52 120.669 26.7 119.87 23.2C119.87 23.2 120.579 31.8299 128.714 29.92C128.714 29.92 128.525 30.0599 125.876 26.1499C123.847 23.16 120.639 23.2099 120.639 23.2099H120.629Z" fill="url(#paint0_radial_1824_42667)"/>
<path d="M119.4 21.4599C119.4 21.4599 119.46 14.8499 125.216 11.3899C125.216 11.3899 118.7 13.2699 117.611 19.7299C117.611 19.7299 116.981 4.08993 132.962 6.15993C132.962 6.15993 130.873 8.68993 127.935 14.8399C125.086 20.8099 119.4 21.4599 119.4 21.4599Z" fill="url(#paint1_radial_1824_42667)"/>
<path d="M122.298 7.19998C121.288 7.99998 119.589 9.56998 118.37 12.07C116.741 15.4 116.881 18.47 117.021 19.8C116.641 19.26 113.203 14.21 115.232 8.00998C117.181 2.06998 122.568 -0.0200195 123.247 -0.27002C122.937 2.21998 122.618 4.70998 122.308 7.20998L122.298 7.19998Z" fill="url(#paint2_radial_1824_42667)"/>
<path d="M114.403 21.7099C114.966 21.7099 115.422 21.2533 115.422 20.6899C115.422 20.1266 114.966 19.6699 114.403 19.6699C113.84 19.6699 113.383 20.1266 113.383 20.6899C113.383 21.2533 113.84 21.7099 114.403 21.7099Z" fill="#FFDD15"/>
<path d="M116.132 21.9299C117.291 21.6499 118.66 23.5499 119.25 24.6599C119.909 25.9199 120.019 27.0599 120.099 27.8699C120.259 29.4699 120.019 30.7899 119.8 31.6299C119.939 30.7099 119.979 29.5099 119.67 28.1999C119.49 27.4699 119.26 26.9099 119.12 26.5999C118.34 24.9199 117.231 23.9699 116.951 23.7399C116.591 23.4399 116.032 23.0399 115.262 22.6899C115.462 22.3499 115.742 22.0299 116.142 21.9299H116.132Z" fill="url(#paint3_radial_1824_42667)"/>
<path d="M8.4751 23.3799C8.72495 23.4999 9.06475 23.71 9.39456 24.04C9.8243 24.47 10.0542 24.92 10.1741 25.2C10.1941 30.06 10.2141 34.93 10.2341 39.79C11.4334 39.76 12.6426 39.73 13.8419 39.7C13.8619 35.58 13.8819 31.46 13.9019 27.35C14.7214 25.51 16.6203 24.4099 18.5492 24.6399C20.2881 24.8399 21.7673 26.0899 22.307 27.7999V40.0299C22.4069 40.5099 23.0865 43.4499 25.8849 44.9799C27.5239 45.8799 29.103 45.87 29.8225 45.82C29.4827 45.76 27.9536 45.4599 26.9043 44.0299C26.0148 42.8299 25.9948 41.5599 26.0148 41.1699C25.9848 36.6499 25.9548 32.12 25.9248 27.6C25.7749 26.93 25.2552 25.0499 23.5063 23.8099C20.8978 21.9499 17.7596 23.0899 17.0101 23.3899C15.3411 24.0699 14.3217 25.1999 13.8519 25.8099C13.792 25.4499 13.5721 24.4099 12.6626 23.6599C11.5633 22.7599 9.92425 22.6499 8.48509 23.3899L8.4751 23.3799Z" fill="url(#paint4_linear_1824_42667)"/>
<path d="M44.124 38.7599C43.7443 38.0799 43.7243 37.4199 43.7143 37.0999C43.6943 35.8599 43.6443 32.1899 43.6543 27.1999C43.4644 26.5999 43.0247 25.4399 41.9453 24.4399C40.736 23.3099 39.4268 23.0099 38.5873 22.8199C37.8677 22.6599 35.609 22.1799 33.2804 23.2799C32.6208 23.5899 31.6014 24.0999 30.8918 25.2299C30.0823 26.5499 30.1223 28.0299 30.3122 28.0899C30.532 28.1499 30.9518 26.3099 32.6808 25.0099C33.0006 24.7699 34.2298 23.8599 35.9189 23.9199C37.288 23.9599 39.2869 24.6299 39.8765 26.2899C40.1364 27.0299 40.1863 28.1399 39.5767 28.8799C39.2169 29.3199 38.7672 29.4399 37.0482 29.8099C34.5297 30.3599 34.4497 30.3199 33.7701 30.5099C32.1511 30.9499 31.0417 31.2499 30.0923 32.2199C29.8624 32.4499 28.4233 33.9799 28.6831 36.1599C28.853 37.6099 29.6725 38.5399 29.9524 38.8399C31.1017 40.0399 32.5209 40.2399 33.2104 40.3299C35.5391 40.6499 37.318 39.5899 37.7977 39.2899C39.2469 38.3899 40.0264 37.1899 40.3862 36.5299C40.2663 36.9999 40.1464 38.2299 40.776 39.0599C40.9059 39.2299 41.3157 39.7199 42.2251 39.9199C43.3045 39.9699 44.3839 40.0299 45.4632 40.0799C45.0735 39.8699 44.4938 39.4699 44.104 38.7699L44.124 38.7599ZM38.1775 38.1199C37.1381 38.8099 35.2093 39.3899 33.6802 38.3199C32.3709 37.3999 32.0311 35.7399 32.231 34.5199C32.5209 32.7799 33.92 31.8299 34.1199 31.6999C35.4891 30.7999 36.4585 31.3399 38.4374 30.4299C39.3069 30.0299 39.9565 29.5399 40.3662 29.1799C40.3962 30.2499 40.4162 31.3099 40.4462 32.3799C40.4862 32.9599 40.4762 33.8299 40.2063 34.8299C39.9665 35.7099 39.5567 37.2199 38.1875 38.1299L38.1775 38.1199Z" fill="url(#paint5_linear_1824_42667)"/>
<path d="M46.6928 23.6599C46.8627 23.6799 47.3425 23.7499 47.7622 24.1399C48.042 24.3999 48.182 24.6899 48.2419 24.8599C48.3219 29.8499 48.4018 34.8399 48.4818 39.8399H51.8198C51.8098 39.2999 51.7898 38.7499 51.7798 38.2099C50.8804 35.9499 50.4306 34.0099 50.1908 32.6199C49.871 30.7399 49.801 29.1699 49.7111 26.9699C49.6511 25.3899 49.6411 24.0699 49.6511 23.1299C48.6617 23.1299 47.6623 23.1399 46.6729 23.1499C46.6729 23.3199 46.6828 23.4899 46.6928 23.6699V23.6599Z" fill="url(#paint6_linear_1824_42667)"/>
<path d="M50.2904 23.1199C50.1604 25.1699 50.1604 27.6399 50.4902 30.4199C50.8001 33.0899 51.3397 35.4199 51.8994 37.3399C51.9094 32.5999 51.9294 27.8599 51.9394 23.1199H50.2904Z" fill="url(#paint7_linear_1824_42667)"/>
<path d="M49.9406 14.8899C49.0012 16.0699 48.0518 17.2499 47.1123 18.4199C48.0817 19.4899 49.0512 20.5699 50.0106 21.6399C50.95 20.5799 51.8895 19.5199 52.8289 18.4599C51.8695 17.2699 50.9001 16.0799 49.9406 14.8899ZM49.9406 20.2799C49.321 19.6299 48.7114 18.9799 48.0917 18.3299L48.8213 17.5199C49.4209 18.1899 50.0306 18.8599 50.6302 19.5199L49.9306 20.2799H49.9406ZM49.1511 17.1799C49.4209 16.8299 49.7008 16.4799 49.9706 16.1399C50.5903 16.8499 51.1999 17.5699 51.8195 18.2799L50.9401 19.1899C50.3404 18.5199 49.7408 17.8499 49.1511 17.1799Z" fill="url(#paint8_linear_1824_42667)"/>
<path d="M54.6079 15.5599C54.6879 15.5599 55.3075 15.5099 55.7772 15.9999C56.237 16.4699 56.197 17.0699 56.197 17.1499C56.197 24.7299 56.207 32.3199 56.217 39.8999C57.4362 39.8999 58.6555 39.9099 59.8748 39.9199C59.8548 31.6499 59.8348 23.3899 59.8148 15.1199L54.6079 15.0999V15.5599Z" fill="url(#paint9_linear_1824_42667)"/>
<path d="M62.1934 15.27C62.4632 15.37 62.893 15.57 63.2927 15.98C63.5026 16.19 63.6425 16.41 63.7424 16.59C63.7724 22.03 63.8124 27.46 63.8424 32.9C63.9123 32.48 64.0123 31.9 64.1822 31.22C64.4021 30.3 64.7718 28.84 65.6313 27.15C66.0111 26.42 66.5708 25.47 67.4003 24.45C67.4003 21.39 67.4003 18.32 67.4003 15.26C65.6613 15.26 63.9323 15.28 62.1934 15.28V15.27Z" fill="url(#paint10_linear_1824_42667)"/>
<path d="M69.3492 23.7699C67.3903 24.9099 66.6008 26.7099 65.5314 29.1699C64.4521 31.6399 64.0723 33.8399 63.9224 35.2599C63.9224 36.8299 63.9424 38.3999 63.9523 39.9699C65.1017 39.9599 66.251 39.9399 67.4003 39.9299C67.5103 35.7899 67.6302 31.6499 67.7401 27.4999C68.2898 25.6799 70.0188 24.4599 71.8877 24.5699C73.6766 24.6799 75.2157 25.9799 75.6155 27.7599C75.6854 32.1799 75.7554 36.5899 75.8254 41.0099C75.9753 41.5499 76.6349 43.6599 78.7736 45.0699C80.6225 46.2799 82.4715 46.2399 83.1011 46.1999C82.6314 46.0899 81.482 45.7599 80.5026 44.7099C79.833 43.9899 79.5232 43.2299 79.3833 42.7799L79.2134 27.2599C78.9935 26.5999 78.3139 24.8699 76.5649 23.7399C74.1763 22.1999 71.2181 22.6899 69.3492 23.7699Z" fill="url(#paint11_linear_1824_42667)"/>
<path d="M81.522 23.5899C81.7318 23.5899 82.0417 23.6399 82.3315 23.8199C83.5708 24.5999 82.9112 26.9699 82.9811 31.5499C83.0211 34.2099 83.2809 35.5899 83.9206 36.9199C84.6002 38.3399 85.3497 38.9499 85.5496 39.1099C87.0487 40.2799 88.7777 40.2299 89.4573 40.2099C90.047 40.1999 92.3656 40.0599 94.1246 38.2699C95.094 37.2799 95.4438 36.2299 95.8435 35.0599C96.3732 33.4899 96.4832 32.1999 96.5631 29.8799C96.6231 28.0899 96.6631 25.8399 96.6231 23.2199C96.0934 23.2199 95.5637 23.2199 95.034 23.2199C95.3638 25.7899 95.4338 27.9299 95.4238 29.4699C95.4138 31.4699 95.2739 32.2799 95.2039 32.6699C94.8241 34.6899 94.4244 36.7999 92.6954 37.7999C91.0664 38.7399 88.6178 38.4699 87.5184 37.1899C87.0087 36.5999 86.8988 35.9299 86.8488 35.6499C86.2292 31.8399 86.529 24.8099 86.609 23.1199H81.542V23.5599L81.522 23.5899Z" fill="url(#paint12_linear_1824_42667)"/>
<path d="M97.2328 23.2C97.2927 24.67 97.3527 27.1399 97.2528 29.7099C97.2128 30.8299 97.1428 31.7699 96.9729 32.8699C96.813 33.9099 96.7331 34.43 96.5332 35.07C96.2733 35.94 95.8336 36.97 95.7437 38.15C95.7337 38.34 95.7137 38.6599 95.8636 39.0099C96.0635 39.4899 96.4532 39.7599 96.6631 39.8899C97.7525 39.8599 98.8318 39.84 99.9212 39.81C99.6713 39.64 99.3415 39.38 99.0417 38.97C99.0417 38.97 98.6519 38.44 98.4421 37.74C98.1622 36.78 98.1522 31.0499 98.492 23.2099H97.2128L97.2328 23.2Z" fill="url(#paint13_linear_1824_42667)"/>
<path d="M98.572 9.50995C99.0017 9.59995 100.241 9.93995 101.25 11.09C102.21 12.18 102.42 13.36 102.47 13.8C102.53 20.43 102.59 27.06 102.65 33.7C103.029 34.74 103.409 35.77 103.789 36.81C103.469 34.68 103.499 32.9 103.599 31.63C103.719 30.12 103.839 28.7 104.578 27.02C105.048 25.96 105.598 25.16 106.018 24.63C105.968 21.26 105.918 17.89 105.868 14.52C105.688 13.87 105.098 12.07 103.329 10.73C102.24 9.89995 101.15 9.57995 100.501 9.44995C99.8512 9.46995 99.2116 9.48995 98.562 9.50995H98.572Z" fill="url(#paint14_linear_1824_42667)"/>
<path d="M118.75 27.4699C118.53 26.9299 117.791 25.1499 115.892 24.0099C114.383 23.0999 112.934 23.0699 112.074 23.0599C111.145 23.0399 109.516 23.0099 107.897 24.0099C106.298 24.9999 105.598 26.4499 105.188 27.3099C104.649 28.4199 104.489 29.3299 104.299 30.3899C103.889 32.6499 104.069 34.3699 104.149 34.9899C104.309 36.2299 104.389 36.8499 104.779 37.5299C105.708 39.1399 107.457 39.6899 108.446 39.9999C109.256 40.2499 111.585 40.9299 114.233 39.8299C114.693 39.6399 116.981 38.6399 118.291 36.1599C119.08 34.6599 119.13 33.3299 119.21 31.6399C119.28 30.1499 119.34 28.9299 118.76 27.4799L118.75 27.4699ZM115.622 31.2299C115.602 33.6199 115.602 34.8099 115.142 35.9999C114.763 36.9899 114.313 38.1899 113.054 38.9499C111.465 39.9199 109.736 39.4699 109.386 39.3699C107.177 38.7399 106.188 36.6899 105.848 35.9899C104.809 33.8299 105.158 31.8399 105.648 29.1299C105.928 27.5399 106.298 26.7199 106.847 26.0299C107.147 25.6499 107.857 24.7899 109.116 24.4199C110.415 24.0299 111.495 24.3899 111.904 24.5299C112.814 24.8399 113.383 25.3499 113.743 25.6699C114.063 25.9599 114.673 26.5699 115.112 27.4599C115.392 28.0299 115.632 28.7799 115.622 31.2199V31.2299Z" fill="url(#paint15_linear_1824_42667)"/>
</g>
<defs>
<radialGradient id="paint0_radial_1824_42667" cx="0" cy="0" r="1" gradientTransform="matrix(-10.9506 3.03659 3.0348 10.957 122.096 29.8645)" gradientUnits="userSpaceOnUse">
<stop stop-color="#8E6258"/>
<stop offset="0.98" stop-color="#DCB5A5"/>
</radialGradient>
<radialGradient id="paint1_radial_1824_42667" cx="0" cy="0" r="1" gradientTransform="matrix(27.9624 -4.04677 -4.04439 -27.9789 132.758 12.9878)" gradientUnits="userSpaceOnUse">
<stop stop-color="#8E6258"/>
<stop offset="0.98" stop-color="#DCB5A5"/>
</radialGradient>
<radialGradient id="paint2_radial_1824_42667" cx="0" cy="0" r="1" gradientTransform="matrix(19.1338 -15.8269 -15.8176 -19.1451 126.004 5.00812)" gradientUnits="userSpaceOnUse">
<stop stop-color="#8E6258"/>
<stop offset="0.98" stop-color="#DCB5A5"/>
</radialGradient>
<radialGradient id="paint3_radial_1824_42667" cx="0" cy="0" r="1" gradientTransform="matrix(-13.6064 0.835078 0.834587 13.6144 115.33 22.6021)" gradientUnits="userSpaceOnUse">
<stop stop-color="#8E6258"/>
<stop offset="0.98" stop-color="#DCB5A5"/>
</radialGradient>
<linearGradient id="paint4_linear_1824_42667" x1="19.2388" y1="44.78" x2="18.9986" y2="17.57" gradientUnits="userSpaceOnUse">
<stop stop-color="#8E6258"/>
<stop offset="0.98" stop-color="#DCB5A5"/>
</linearGradient>
<linearGradient id="paint5_linear_1824_42667" x1="37.1281" y1="44.6199" x2="36.888" y2="17.4199" gradientUnits="userSpaceOnUse">
<stop stop-color="#8E6258"/>
<stop offset="0.98" stop-color="#DCB5A5"/>
</linearGradient>
<linearGradient id="paint6_linear_1824_42667" x1="49.3613" y1="44.5099" x2="49.1211" y2="17.3099" gradientUnits="userSpaceOnUse">
<stop stop-color="#8E6258"/>
<stop offset="0.98" stop-color="#DCB5A5"/>
</linearGradient>
<linearGradient id="paint7_linear_1824_42667" x1="51.2598" y1="44.4999" x2="51.0196" y2="17.2899" gradientUnits="userSpaceOnUse">
<stop stop-color="#8E6258"/>
<stop offset="0.98" stop-color="#DCB5A5"/>
</linearGradient>
<linearGradient id="paint8_linear_1824_42667" x1="50.2005" y1="44.5099" x2="49.9603" y2="17.2999" gradientUnits="userSpaceOnUse">
<stop stop-color="#8E6258"/>
<stop offset="0.98" stop-color="#DCB5A5"/>
</linearGradient>
<linearGradient id="paint9_linear_1824_42667" x1="57.4662" y1="44.4399" x2="57.2261" y2="17.2399" gradientUnits="userSpaceOnUse">
<stop stop-color="#8E6258"/>
<stop offset="0.98" stop-color="#DCB5A5"/>
</linearGradient>
<linearGradient id="paint10_linear_1824_42667" x1="65.0517" y1="44.38" x2="64.8215" y2="17.17" gradientUnits="userSpaceOnUse">
<stop stop-color="#8E6258"/>
<stop offset="0.98" stop-color="#DCB5A5"/>
</linearGradient>
<linearGradient id="paint11_linear_1824_42667" x1="73.5367" y1="44.2999" x2="73.2966" y2="17.0999" gradientUnits="userSpaceOnUse">
<stop stop-color="#8E6258"/>
<stop offset="0.98" stop-color="#DCB5A5"/>
</linearGradient>
<linearGradient id="paint12_linear_1824_42667" x1="89.2474" y1="44.1599" x2="89.0073" y2="16.9599" gradientUnits="userSpaceOnUse">
<stop stop-color="#8E6258"/>
<stop offset="0.98" stop-color="#DCB5A5"/>
</linearGradient>
<linearGradient id="paint13_linear_1824_42667" x1="97.8724" y1="44.0899" x2="97.6323" y2="16.88" gradientUnits="userSpaceOnUse">
<stop stop-color="#8E6258"/>
<stop offset="0.98" stop-color="#DCB5A5"/>
</linearGradient>
<linearGradient id="paint14_linear_1824_42667" x1="102.53" y1="44.05" x2="102.3" y2="16.84" gradientUnits="userSpaceOnUse">
<stop stop-color="#8E6258"/>
<stop offset="0.98" stop-color="#DCB5A5"/>
</linearGradient>
<linearGradient id="paint15_linear_1824_42667" x1="111.744" y1="43.9699" x2="111.514" y2="16.7599" gradientUnits="userSpaceOnUse">
<stop stop-color="#8E6258"/>
<stop offset="0.98" stop-color="#DCB5A5"/>
</linearGradient>
<clipPath id="clip0_1824_42667">
<rect width="136" height="46" fill="white"/>
</clipPath>
</defs>
</svg>
