<svg width="320" height="74" viewBox="0 0 320 74" fill="none" xmlns="http://www.w3.org/2000/svg">
<path d="M40.5722 66.0027H32.2573V74.0004H40.5722V66.0027Z" fill="url(#paint0_linear_4892_188353)"/>
<path d="M23.9418 18.2686H15.627V26.0137H23.9418V18.2686Z" fill="url(#paint1_linear_4892_188353)"/>
<path d="M5.47403 41.5886H0.310059V46.5556H5.47403V41.5886Z" fill="url(#paint2_linear_4892_188353)"/>
<path d="M11.5141 58.7617H6.3501V63.7287H11.5141V58.7617Z" fill="url(#paint3_linear_4892_188353)"/>
<path d="M17.027 32.6638H10.2876V39.1462H17.027V32.6638Z" fill="url(#paint4_linear_4892_188353)"/>
<path d="M32.2553 42.0088H23.9404V50.0065H32.2553V42.0088Z" fill="url(#paint5_linear_4892_188353)"/>
<path d="M25.1672 59.9412H18.4277V66.4235H25.1672V59.9412Z" fill="url(#paint6_linear_4892_188353)"/>
<path d="M16.8532 47.5662H10.1138V54.0485H16.8532V47.5662Z" fill="url(#paint7_linear_4892_188353)"/>
<path d="M78.3818 35.1059C78.3818 27.024 72.4301 20.2048 64.4654 18.6053C62.5398 18.2686 60.7018 18.2686 60.7018 18.2686V42.2617L41.5338 18.2686H32.1686V26.0137H24.0288V34.0114H32.3437V42.0092H40.6586V50.0069H32.3437V58.0046H40.6586V66.0023H48.9734V74.0001H61.0519L60.9644 52.0274C70.5046 52.0274 78.3818 44.4506 78.3818 35.1059Z" fill="url(#paint8_linear_4892_188353)"/>
<path d="M60.7022 45.2082L38.7334 18.3527C50.8994 18.3527 60.7022 10.1024 60.7022 0V45.2082Z" fill="url(#paint9_linear_4892_188353)"/>
<path d="M91.8608 35.01H100.115L110.789 67.5896H103.673L91.8608 35.01ZM108.085 54.9958L114.489 35.01H122.744L111.643 65.6731L108.085 54.9958Z" fill="url(#paint10_linear_4892_188353)"/>
<path d="M125.449 67.5896V35.01H133.134V67.5896H125.449ZM134.273 67.5896V61.5665H149.074V67.5896H134.273Z" fill="url(#paint11_linear_4892_188353)"/>
<path d="M152.345 67.5896V35.01H159.888V67.5896H152.345Z" fill="url(#paint12_linear_4892_188353)"/>
<path d="M165.437 35.01H172.695L192.904 67.5896H185.788L165.437 35.01ZM165.437 67.5896V37.2002L172.695 48.9727L172.979 67.5896H165.437ZM185.219 35.01H192.904V65.1256L185.646 53.3531L185.219 35.01Z" fill="url(#paint13_linear_4892_188353)"/>
<path d="M198.176 67.5896V35.01H205.861V67.5896H198.176ZM207.142 54.0376V45.9611L217.816 35.01H227.635L212.123 49.794L228.347 67.5896H218.812L207.142 54.0376Z" fill="url(#paint14_linear_4892_188353)"/>
<path d="M230.191 67.5896V35.01H237.877V67.5896H230.191ZM239.157 56.3647V50.3416H241.577C242.858 50.3416 243.712 50.3416 244.139 50.3416C245.846 50.2047 247.127 49.6571 247.839 48.562C248.55 47.6038 248.835 46.6456 248.835 45.5505C248.835 44.0447 248.408 42.9496 247.412 42.1282C246.416 41.3069 244.85 40.8962 242.431 40.8962H239.157V35.01H242.858C245.704 35.01 247.981 35.2838 249.547 35.6945C251.824 36.242 253.531 37.6109 254.812 39.3905C255.951 41.17 256.52 43.2233 256.52 45.6873C256.52 48.4251 255.666 50.7522 254.101 52.6687C252.962 54.0376 251.539 54.9958 249.974 55.5434C248.408 56.0909 245.989 56.3647 243 56.3647H239.157Z" fill="url(#paint15_linear_4892_188353)"/>
<path d="M257.235 67.5896L268.905 35.01H277.587L289.541 67.5896H281.002L278.868 60.7451H269.332L271.182 54.722H277.017L274.598 46.9194C274.313 45.9611 273.886 44.4553 273.46 42.1282C273.175 43.0865 272.89 44.7291 272.321 46.6456L265.917 67.4527H257.235V67.5896Z" fill="url(#paint16_linear_4892_188353)"/>
<path d="M289.114 35.01H297.511L308.042 55.4065V67.5896H300.5V55.4065L289.114 35.01ZM305.054 46.7825L311.031 35.1469H319.428L308.754 54.3114L305.054 46.7825Z" fill="url(#paint17_linear_4892_188353)"/>
<defs>
<linearGradient id="paint0_linear_4892_188353" x1="-14.5257" y1="21.0376" x2="34.0379" y2="71.5271" gradientUnits="userSpaceOnUse">
<stop stop-color="#9100F6"/>
<stop offset="1" stop-color="#12BCDA"/>
</linearGradient>
<linearGradient id="paint1_linear_4892_188353" x1="2.03555" y1="5.10708" x2="50.5992" y2="55.5966" gradientUnits="userSpaceOnUse">
<stop stop-color="#9100F6"/>
<stop offset="1" stop-color="#12BCDA"/>
</linearGradient>
<linearGradient id="paint2_linear_4892_188353" x1="-17.7998" y1="24.1862" x2="30.7639" y2="74.6757" gradientUnits="userSpaceOnUse">
<stop stop-color="#9100F6"/>
<stop offset="1" stop-color="#12BCDA"/>
</linearGradient>
<linearGradient id="paint3_linear_4892_188353" x1="-23.701" y1="29.8622" x2="24.8626" y2="80.3517" gradientUnits="userSpaceOnUse">
<stop stop-color="#9100F6"/>
<stop offset="1" stop-color="#12BCDA"/>
</linearGradient>
<linearGradient id="paint4_linear_4892_188353" x1="-8.15051" y1="14.9036" x2="40.4132" y2="65.3931" gradientUnits="userSpaceOnUse">
<stop stop-color="#9100F6"/>
<stop offset="1" stop-color="#12BCDA"/>
</linearGradient>
<linearGradient id="paint5_linear_4892_188353" x1="-6.21806" y1="13.0441" x2="42.3457" y2="63.5336" gradientUnits="userSpaceOnUse">
<stop stop-color="#9100F6"/>
<stop offset="1" stop-color="#12BCDA"/>
</linearGradient>
<linearGradient id="paint6_linear_4892_188353" x1="-18.2783" y1="24.6463" x2="30.2854" y2="75.1358" gradientUnits="userSpaceOnUse">
<stop stop-color="#9100F6"/>
<stop offset="1" stop-color="#12BCDA"/>
</linearGradient>
<linearGradient id="paint7_linear_4892_188353" x1="-15.9911" y1="22.4477" x2="32.5726" y2="72.9372" gradientUnits="userSpaceOnUse">
<stop stop-color="#9100F6"/>
<stop offset="1" stop-color="#12BCDA"/>
</linearGradient>
<linearGradient id="paint8_linear_4892_188353" x1="8.92611" y1="-1.52118" x2="57.4898" y2="48.9683" gradientUnits="userSpaceOnUse">
<stop stop-color="#9100F6"/>
<stop offset="1" stop-color="#12BCDA"/>
</linearGradient>
<linearGradient id="paint9_linear_4892_188353" x1="80.0586" y1="37.9617" x2="45.8152" y2="8.57656" gradientUnits="userSpaceOnUse">
<stop offset="0.5265" stop-color="#E67F09"/>
<stop offset="0.8" stop-color="#FFC34A"/>
</linearGradient>
<linearGradient id="paint10_linear_4892_188353" x1="77.7304" y1="17.1709" x2="183.589" y2="127.228" gradientUnits="userSpaceOnUse">
<stop stop-color="#9100F6"/>
<stop offset="1" stop-color="#12BCDA"/>
</linearGradient>
<linearGradient id="paint11_linear_4892_188353" x1="85.765" y1="9.44435" x2="191.624" y2="119.501" gradientUnits="userSpaceOnUse">
<stop stop-color="#9100F6"/>
<stop offset="1" stop-color="#12BCDA"/>
</linearGradient>
<linearGradient id="paint12_linear_4892_188353" x1="99.1953" y1="-3.47605" x2="205.054" y2="106.581" gradientUnits="userSpaceOnUse">
<stop stop-color="#9100F6"/>
<stop offset="1" stop-color="#12BCDA"/>
</linearGradient>
<linearGradient id="paint13_linear_4892_188353" x1="110.687" y1="-14.5309" x2="216.546" y2="95.5258" gradientUnits="userSpaceOnUse">
<stop stop-color="#9100F6"/>
<stop offset="1" stop-color="#12BCDA"/>
</linearGradient>
<linearGradient id="paint14_linear_4892_188353" x1="127.598" y1="-30.7903" x2="233.456" y2="79.2664" gradientUnits="userSpaceOnUse">
<stop stop-color="#9100F6"/>
<stop offset="1" stop-color="#12BCDA"/>
</linearGradient>
<linearGradient id="paint15_linear_4892_188353" x1="141.313" y1="-43.9885" x2="247.172" y2="66.0683" gradientUnits="userSpaceOnUse">
<stop stop-color="#9100F6"/>
<stop offset="1" stop-color="#12BCDA"/>
</linearGradient>
<linearGradient id="paint16_linear_4892_188353" x1="154.82" y1="-56.9764" x2="260.679" y2="53.0804" gradientUnits="userSpaceOnUse">
<stop stop-color="#9100F6"/>
<stop offset="1" stop-color="#12BCDA"/>
</linearGradient>
<linearGradient id="paint17_linear_4892_188353" x1="176.154" y1="-77.4969" x2="282.013" y2="32.5598" gradientUnits="userSpaceOnUse">
<stop stop-color="#9100F6"/>
<stop offset="1" stop-color="#12BCDA"/>
</linearGradient>
</defs>
</svg>
